PathFileType	4	(X/Y/Z)	/Users/FranklinZhao/OpenSimProject/Simulation/c3d_to_trc/SN001_static.trc
DataRate	CameraRate	NumFrames	NumMarkers	Units	OrigDataRate	OrigDataStartFrame	OrigNumFrames
200.000000	200.000000	4	72	mm	200.000000	3	14
Frame#	Time	LPSIS			RPSIS			LICR			RICR			LASIS			RASIS			RUA1			RUA2			RUA3			RUA4			RHLE			RHME			RTEMP			RHEAD			LHEAD			LTEMP			RACR			LACR			LUA1			LUA2			LUA3			LUA4			LHLE			LHME			STER			XPRO			C7			T4			T8			T10			LFA1			LFA2			LFA3			LRSP			LUSP			RFA1			RFA2			RFA3			RRSP			RUSP			LTH1			LTH2			LTH3			LTH4			LFLE			LFME			LSK1			LSK2			LSK3			LSK4			LTAM			LFAL			LFCC			LFMT1			LFMT2			LFMT5			RTH1			RTH2			RTH3			RTH4			RFLE			RFME			RSK1			RSK2			RSK3			RSK4			RFAL			RTAM			RFCC			RFMT1			RFMT2			RFMT5			
		X1	Y1	Z1	X2	Y2	Z2	X3	Y3	Z3	X4	Y4	Z4	X5	Y5	Z5	X6	Y6	Z6	X7	Y7	Z7	X8	Y8	Z8	X9	Y9	Z9	X10	Y10	Z10	X11	Y11	Z11	X12	Y12	Z12	X13	Y13	Z13	X14	Y14	Z14	X15	Y15	Z15	X16	Y16	Z16	X17	Y17	Z17	X18	Y18	Z18	X19	Y19	Z19	X20	Y20	Z20	X21	Y21	Z21	X22	Y22	Z22	X23	Y23	Z23	X24	Y24	Z24	X25	Y25	Z25	X26	Y26	Z26	X27	Y27	Z27	X28	Y28	Z28	X29	Y29	Z29	X30	Y30	Z30	X31	Y31	Z31	X32	Y32	Z32	X33	Y33	Z33	X34	Y34	Z34	X35	Y35	Z35	X36	Y36	Z36	X37	Y37	Z37	X38	Y38	Z38	X39	Y39	Z39	X40	Y40	Z40	X41	Y41	Z41	X42	Y42	Z42	X43	Y43	Z43	X44	Y44	Z44	X45	Y45	Z45	X46	Y46	Z46	X47	Y47	Z47	X48	Y48	Z48	X49	Y49	Z49	X50	Y50	Z50	X51	Y51	Z51	X52	Y52	Z52	X53	Y53	Z53	X54	Y54	Z54	X55	Y55	Z55	X56	Y56	Z56	X57	Y57	Z57	X58	Y58	Z58	X59	Y59	Z59	X60	Y60	Z60	X61	Y61	Z61	X62	Y62	Z62	X63	Y63	Z63	X64	Y64	Z64	X65	Y65	Z65	X66	Y66	Z66	X67	Y67	Z67	X68	Y68	Z68	X69	Y69	Z69	X70	Y70	Z70	X71	Y71	Z71	X72	Y72	Z72	

4	0.015	1604.845703125	276.7158203125	1006.665588378906	1604.412841796875	354.12109375	1009.646850585938	1585.561157226562	183.8944396972656	1066.212158203125	1573.0537109375	445.3921508789062	1091.448486328125	1413.448852539062	185.4436645507812	989.293701171875	1406.9619140625	444.3523254394531	994.5010375976562	1559.941162109375	562.2356567382812	1369.919067382812	1498.66064453125	592.7822265625	1400.782104492188	1480.44580078125	639.9727172851562	1346.419677734375	1538.725463867188	616.542724609375	1306.363403320312	1500.301513671875	665.276611328125	1244.271362304688	1449.218139648438	614.0119018554688	1218.609619140625	1410.4189453125	390.7488708496094	1708.138549804688	1367.939331054688	353.7349548339844	1714.902587890625	1369.49267578125	271.842529296875	1712.401000976562	1419.807250976562	233.7799224853516	1701.134399414062	1532.898315429688	480.7925720214844	1523.040649414062	1548.274047851562	128.5129852294922	1526.131713867188	1517.480102539062	30.13027954101562	1408.46630859375	1566.538330078125	52.85264587402344	1354.891723632812	1539.805053710938	0.838871955871582	1290.73291015625	1491.243774414062	-21.28036117553711	1342.923950195312	1494.391967773438	-41.91093826293945	1249.0673828125	1457.901245117188	11.41046714782715	1217.372802734375	1448.326904296875	302.0783081054688	1455.085571289062	1391.248779296875	294.9125671386719	1250.21240234375	1577.071899414062	312.8760070800781	1559.896728515625	1635.880981445312	307.5302429199219	1450.281860351562	1635.919067382812	311.1488342285156	1314.891967773438	1630.472045898438	306.3421020507812	1269.827270507812	1447.527954101562	-224.0489044189453	1140.1884765625	1473.140014648438	-201.0114135742188	1107.886352539062	1437.689086914062	-229.0707550048828	1107.244873046875	1390.364624023438	-248.2183837890625	1100.60107421875	1413.528564453125	-210.2440185546875	1047.26611328125	1506.43798828125	808.8569946289062	1120.424926757812	1487.0673828125	837.2828369140625	1151.999633789062	1480.70751953125	846.010498046875	1118.915771484375	1449.501586914062	889.8987426757812	1099.548461914062	1456.834716796875	844.2401123046875	1056.193115234375	1489.707885742188	123.1510391235352	716.0269165039062	1538.829467773438	134.9162750244141	719.7296752929688	1553.068725585938	143.4014892578125	612.7522583007812	1490.647705078125	126.3535232543945	613.2766723632812	1534.512451171875	142.8240509033203	520.2884521484375	1519.306518554688	259.1111755371094	492.196533203125	1568.794921875	100.273323059082	350.8016052246094	1627.01123046875	122.5929183959961	352.7328796386719	1631.091064453125	127.7602157592773	264.9171142578125	1571.9853515625	102.7377548217773	267.3585815429688	1551.091674804688	193.7224426269531	85.46522521972656	1608.085815429688	133.375244140625	76.58264923095703	1627.208251953125	188.4021453857422	36.63314819335938	1421.718872070312	131.6528625488281	30.30976676940918	1433.412719726562	93.66043853759766	31.17107772827148	1491.87451171875	58.70525741577148	23.57115936279297	1513.944702148438	499.5742492675781	748.5811767578125	1457.757446289062	497.73828125	727.69580078125	1460.460327148438	489.5701599121094	641.06884765625	1524.708129882812	489.4644165039062	648.3631591796875	1525.051879882812	480.582275390625	536.37158203125	1520.02001953125	362.0392150878906	500.7700805664062	1590.920654296875	512.135009765625	366.4049072265625	1534.47119140625	518.589599609375	383.5420532226562	1533.390380859375	513.6891479492188	274.3700561523438	1597.442260742188	511.4962463378906	283.6755981445312	1594.147338867188	487.9378356933594	74.1573486328125	1550.294067382812	414.9711608886719	87.59607696533203	1623.533935546875	439.8829650878906	42.79813385009766	1422.900268554688	454.9143981933594	30.10222434997559	1421.874633789062	499.9053649902344	30.97566223144531	1468.203002929688	547.2279663085938	21.25930786132812	
5	0.02	1604.8271484375	276.7129821777344	1006.611938476562	1604.418334960938	354.1020202636719	1009.612609863281	1585.54833984375	183.8935699462891	1066.220581054688	1573.027709960938	445.405517578125	1091.41943359375	1413.442260742188	185.3633117675781	989.3057861328125	1406.972290039062	444.4013061523438	994.5	1559.959106445312	562.228515625	1369.85986328125	1498.748413085938	592.7386474609375	1400.74755859375	1480.527099609375	639.9554443359375	1346.374267578125	1538.781127929688	616.5489501953125	1306.2958984375	1500.357299804688	665.2555541992188	1244.195922851562	1449.325805664062	614.0106811523438	1218.5693359375	1410.464111328125	390.7984313964844	1708.164672851562	1367.967651367188	353.7937927246094	1714.891235351562	1369.515869140625	271.8739318847656	1712.41455078125	1419.787719726562	233.7569122314453	1701.16357421875	1532.925170898438	480.7548828125	1523.026123046875	1548.260131835938	128.4965209960938	1526.144287109375	1517.480712890625	30.12163734436035	1408.48681640625	1566.56982421875	52.85683441162109	1354.899291992188	1539.840454101562	0.8032795786857605	1290.731811523438	1491.254028320312	-21.26543998718262	1342.931762695312	1494.42529296875	-41.99082183837891	1249.13623046875	1457.94775390625	11.37351417541504	1217.337646484375	1448.377685546875	302.0706481933594	1455.068481445312	1391.250366210938	294.9466552734375	1250.175048828125	1577.064331054688	312.8757629394531	1559.884887695312	1635.905883789062	307.5395202636719	1450.23193359375	1635.923706054688	311.1167297363281	1314.821411132812	1630.447998046875	306.3073425292969	1269.769775390625	1447.467407226562	-224.1024169921875	1140.240844726562	1473.09423828125	-201.1178436279297	1107.91943359375	1437.617919921875	-229.1395416259766	1107.323608398438	1390.280395507812	-248.2315216064453	1100.710327148438	1413.457763671875	-210.3057250976562	1047.338012695312	1506.442260742188	808.8734741210938	1120.4140625	1487.0458984375	837.23779296875	1152.033447265625	1480.705200195312	846.0170288085938	1118.900634765625	1449.495849609375	889.9370727539062	1099.531372070312	1456.822509765625	844.3140869140625	1056.210571289062	1489.72412109375	123.1808853149414	715.997802734375	1538.839111328125	134.8792724609375	719.7391967773438	1553.068237304688	143.3990325927734	612.7191162109375	1490.671630859375	126.3876419067383	613.2550048828125	1534.527709960938	142.8825225830078	520.3087158203125	1519.355712890625	259.11474609375	492.2031860351562	1568.826049804688	100.3037872314453	350.7587585449219	1627.028686523438	122.6333923339844	352.7196044921875	1631.097412109375	127.7684173583984	264.9076232910156	1571.969970703125	102.7441253662109	267.3414611816406	1551.090698242188	193.7448120117188	85.42840576171875	1608.086303710938	133.3744659423828	76.55504608154297	1627.20166015625	188.3942108154297	36.58238220214844	1421.716186523438	131.6793518066406	30.29752922058105	1433.415161132812	93.66249847412109	31.15276145935059	1491.86767578125	58.70625686645508	23.59068298339844	1513.962768554688	499.5997619628906	748.5518798828125	1457.786376953125	497.7521667480469	727.6837158203125	1460.437866210938	489.6426696777344	641.0331420898438	1524.70654296875	489.4793090820312	648.3660888671875	1525.085327148438	480.5598449707031	536.3228759765625	1519.995971679688	362.0335693359375	500.7676086425781	1590.935424804688	512.1448974609375	366.3855895996094	1534.428588867188	518.6030883789062	383.5531005859375	1533.393310546875	513.7037963867188	274.3394165039062	1597.4248046875	511.5257263183594	283.6302490234375	1594.159057617188	487.9607238769531	74.13285827636719	1550.305908203125	415.0190734863281	87.52762603759766	1623.563720703125	439.8921813964844	42.74312210083008	1422.899291992188	454.9047241210938	30.10629081726074	1421.853149414062	499.8927917480469	31.0118465423584	1468.211181640625	547.2060546875	21.26283264160156	
6	0.025	1604.83349609375	276.7296447753906	1006.55078125	1604.410522460938	354.0779113769531	1009.570556640625	1585.5732421875	183.9031066894531	1066.190673828125	1573.0537109375	445.4327392578125	1091.376953125	1413.46826171875	185.4493865966797	989.2604370117188	1406.978271484375	444.3860168457031	994.4866943359375	1560.042724609375	562.2020874023438	1369.843627929688	1498.792358398438	592.754638671875	1400.709716796875	1480.57275390625	639.954833984375	1346.340576171875	1538.835815429688	616.530029296875	1306.28466796875	1500.400756835938	665.26025390625	1244.1884765625	1449.334838867188	614.0078125	1218.547607421875	1410.473754882812	390.8452453613281	1708.128051757812	1367.979858398438	353.7746887207031	1714.870971679688	1369.518188476562	271.9430541992188	1712.394653320312	1419.794189453125	233.7444763183594	1701.14501953125	1532.973266601562	480.7665710449219	1522.985107421875	1548.293334960938	128.4838409423828	1526.142456054688	1517.514770507812	30.13486289978027	1408.505493164062	1566.611572265625	52.86831665039062	1354.896850585938	1539.885620117188	0.8119675517082214	1290.751220703125	1491.302001953125	-21.28811645507812	1342.917602539062	1494.475952148438	-41.98844146728516	1249.0751953125	1457.998046875	11.34837532043457	1217.320556640625	1448.390380859375	302.0896911621094	1455.062133789062	1391.295043945312	294.9566955566406	1250.20068359375	1577.101440429688	312.9219970703125	1559.857543945312	1635.986083984375	307.5582580566406	1450.19873046875	1635.961547851562	311.1148071289062	1314.731811523438	1630.454833984375	306.3045959472656	1269.729736328125	1447.40478515625	-224.1400604248047	1140.307250976562	1473.02294921875	-201.2439270019531	1107.972412109375	1437.498901367188	-229.2447814941406	1107.38134765625	1390.185791015625	-248.28271484375	1100.845581054688	1413.367797851562	-210.4064025878906	1047.410522460938	1506.460083007812	808.9034423828125	1120.368896484375	1487.056762695312	837.260986328125	1152.041748046875	1480.710327148438	846.0516967773438	1118.885620117188	1449.472534179688	889.9439086914062	1099.52587890625	1456.822998046875	844.3425903320312	1056.195922851562	1489.909423828125	123.6884613037109	715.7440185546875	1538.91552734375	135.0207366943359	719.5741577148438	1553.074951171875	143.4247741699219	612.7271118164062	1490.651611328125	126.3740768432617	613.2368774414062	1534.504638671875	142.8490447998047	520.23095703125	1519.4052734375	259.1314392089844	492.1326293945312	1568.802856445312	100.2917022705078	350.7910766601562	1627.00244140625	122.602912902832	352.7029418945312	1631.101440429688	127.7631683349609	264.8833618164062	1571.9921875	102.7434616088867	267.3660583496094	1551.100463867188	193.7484436035156	85.33660125732422	1607.915283203125	133.3951110839844	76.58650207519531	1627.217041015625	188.3846282958984	36.57350540161133	1421.7138671875	131.6911773681641	30.25815010070801	1433.388793945312	93.65823364257812	31.15164184570312	1491.879272460938	58.67922210693359	23.55822372436523	1513.955688476562	499.6132507324219	748.5647583007812	1457.815185546875	497.7544555664062	727.6670532226562	1460.464965820312	489.6007995605469	640.9733276367188	1524.681274414062	489.5240783691406	648.30615234375	1525.11865234375	480.5462341308594	536.3441772460938	1519.991088867188	362.0423889160156	500.80126953125	1590.979125976562	512.115478515625	366.30859375	1534.430786132812	518.6138305664062	383.5398559570312	1533.399658203125	513.7354736328125	274.3442687988281	1597.439331054688	511.5144348144531	283.6066284179688	1594.148559570312	487.9575500488281	74.11676025390625	1550.409301757812	414.7802734375	87.393798828125	1623.566284179688	439.8853759765625	42.74519729614258	1422.828857421875	454.9381713867188	30.18286323547363	1421.809692382812	499.9844665527344	31.09921646118164	1468.1982421875	547.23828125	21.23626899719238	
7	0.03	1604.860229492188	276.7069702148438	1006.561401367188	1604.427001953125	354.0567932128906	1009.542663574219	1585.560668945312	183.8830413818359	1066.189697265625	1573.055786132812	445.4088134765625	1091.358642578125	1413.44580078125	185.3197326660156	989.225830078125	1407.007934570312	444.3963928222656	994.5567626953125	1560.089111328125	562.1862182617188	1369.799072265625	1498.811279296875	592.7652587890625	1400.717529296875	1480.621704101562	639.9544067382812	1346.310302734375	1538.863891601562	616.5249633789062	1306.294311523438	1500.442016601562	665.28857421875	1244.179565429688	1449.368530273438	614.0030517578125	1218.5244140625	1410.528564453125	390.8460693359375	1708.08349609375	1368.046997070312	353.8011474609375	1714.892333984375	1369.515502929688	271.9188537597656	1712.37646484375	1419.81591796875	233.8099517822266	1701.12158203125	1532.977416992188	480.8104553222656	1522.94921875	1548.314453125	128.5010986328125	1526.108154296875	1517.525024414062	30.14258003234863	1408.50390625	1566.592651367188	52.85643005371094	1354.8896484375	1539.956176757812	0.8365545868873596	1290.770385742188	1491.322998046875	-21.29535102844238	1342.94287109375	1494.508056640625	-41.94103622436523	1249.098876953125	1458.03662109375	11.31895065307617	1217.28515625	1448.417236328125	302.0873107910156	1455.061279296875	1391.261962890625	294.9396057128906	1250.197387695312	1577.123657226562	312.91943359375	1559.841064453125	1635.962524414062	307.4983215332031	1450.274780273438	1635.97216796875	311.1199340820312	1314.729125976562	1630.495971679688	306.3114013671875	1269.702270507812	1447.304931640625	-224.1981353759766	1140.364379882812	1472.9580078125	-201.3191680908203	1108.074096679688	1437.4462890625	-229.2760467529297	1107.51318359375	1390.101318359375	-248.3119812011719	1100.950073242188	1413.303344726562	-210.4809265136719	1047.557373046875	1506.452758789062	808.9450073242188	1120.360473632812	1487.044311523438	837.2909545898438	1151.994018554688	1480.622802734375	846.11083984375	1118.880737304688	1449.47021484375	889.9698486328125	1099.566162109375	1456.823120117188	844.3707885742188	1056.18994140625	1489.9033203125	123.6843185424805	715.7109375	1538.906127929688	134.9809722900391	719.5881958007812	1553.074829101562	143.3891448974609	612.7140502929688	1490.638061523438	126.3680191040039	613.2435913085938	1534.519409179688	142.8394165039062	520.2107543945312	1519.449462890625	259.1300354003906	492.1255798339844	1568.794921875	100.2705612182617	350.771240234375	1627.019409179688	122.6165084838867	352.6992797851562	1631.118896484375	127.7477569580078	264.8836975097656	1571.967651367188	102.7162246704102	267.3338317871094	1551.094604492188	193.7533874511719	85.29227447509766	1607.9091796875	133.4148559570312	76.58222961425781	1627.203491210938	188.3986663818359	36.55960845947266	1421.7021484375	131.6701049804688	30.26914596557617	1433.405395507812	93.68510437011719	31.13309860229492	1491.8662109375	58.70455551147461	23.55400085449219	1513.984741210938	499.5684509277344	748.5281982421875	1457.797119140625	497.7374572753906	727.6337890625	1460.489868164062	489.6253662109375	640.9959106445312	1524.693237304688	489.51708984375	648.2973022460938	1525.107788085938	480.5637817382812	536.3024291992188	1520.033569335938	362.0416870117188	500.7703857421875	1590.9658203125	512.1605224609375	366.3086853027344	1534.474365234375	518.60400390625	383.5006408691406	1533.401000976562	513.7568359375	274.3769226074219	1597.440795898438	511.5419311523438	283.6217041015625	1594.134521484375	487.9453125	74.09436798095703	1550.389892578125	414.7599792480469	87.39204406738281	1623.584838867188	439.962646484375	42.81406784057617	1422.9208984375	454.9320983886719	30.08335876464844	1421.863403320312	499.9318542480469	30.94278907775879	1468.195556640625	547.2198486328125	21.22583389282227	
